<svg width="52" height="53" viewBox="0 0 52 53" fill="none" xmlns="http://www.w3.org/2000/svg">
<path d="M51.7616 26.9958C51.7616 24.8244 51.5854 23.2399 51.2041 21.5967H26.409V31.3972H40.9631C40.6698 33.8328 39.0853 37.5007 35.564 39.9654L35.5146 40.2935L43.3544 46.3669L43.8975 46.4211C48.8858 41.8142 51.7616 35.0358 51.7616 26.9958Z" fill="#4285F4"/>
<path d="M26.409 52.8182C33.5393 52.8182 39.5253 50.4706 43.8976 46.4213L35.564 39.9657C33.334 41.5209 30.3409 42.6066 26.409 42.6066C19.4253 42.6066 13.498 37.9998 11.3851 31.6323L11.0754 31.6586L2.9235 37.9674L2.81689 38.2638C7.15966 46.8907 16.08 52.8182 26.409 52.8182Z" fill="#34A853"/>
<path d="M11.3851 31.6322C10.8276 29.989 10.5049 28.2282 10.5049 26.409C10.5049 24.5896 10.8276 22.8291 11.3558 21.1859L11.341 20.8359L3.08695 14.4258L2.81689 14.5542C1.02703 18.1342 0 22.1543 0 26.409C0 30.6638 1.02703 34.6837 2.81689 38.2636L11.3851 31.6322Z" fill="#FBBC05"/>
<path d="M26.409 10.2114C31.3679 10.2114 34.713 12.3534 36.6204 14.1435L44.0735 6.86633C39.4961 2.61156 33.5393 0 26.409 0C16.08 0 7.15966 5.9273 2.81689 14.5542L11.3558 21.1858C13.498 14.8184 19.4253 10.2114 26.409 10.2114Z" fill="#EB4335"/>
</svg>
